<?xml version="1.0" encoding="UTF-8" standalone="no"?>
<!DOCTYPE svg PUBLIC "-//W3C//DTD SVG 1.1//EN"
 "http://www.w3.org/Graphics/SVG/1.1/DTD/svg11.dtd">
<!-- Generated by graphviz version 2.26.3 (20100126.1600)
 -->
<!-- Title: pii_piists_snd Pages: 1 -->
<svg width="718pt" height="1302pt"
 viewBox="0.00 0.00 718.00 1302.00" xmlns="http://www.w3.org/2000/svg" xmlns:xlink="http://www.w3.org/1999/xlink">
<g id="graph1" class="graph" transform="scale(1 1) rotate(0) translate(4 1298)">
<title>pii_piists_snd</title>
<polygon fill="white" stroke="white" points="-4,5 -4,-1298 715,-1298 715,5 -4,5"/>
<!-- bb 2 -->
<g id="node1" class="node"><title>bb 2</title>
<polygon fill="none" stroke="black" points="257,-1220 85,-1220 85,-1148 257,-1148 257,-1220"/>
<text text-anchor="start" x="92.5" y="-1203.4" font-family="Times New Roman,serif" font-size="14.00"> &#160;pii_status = 1;</text>
<text text-anchor="start" x="92.5" y="-1187.4" font-family="Times New Roman,serif" font-size="14.00"> &#160;evrc = 0;</text>
<text text-anchor="start" x="92.5" y="-1171.4" font-family="Times New Roman,serif" font-size="14.00"> &#160;loop = 0;</text>
<text text-anchor="start" x="92.5" y="-1155.4" font-family="Times New Roman,serif" font-size="14.00"> &#160;D.7825 = tkrcv&#45;&gt;msghndl;</text>
</g>
<!-- bb 3 -->
<g id="node3" class="node"><title>bb 3</title>
<polygon fill="none" stroke="black" points="176,-1022 4.26326e-014,-1022 0,-986 176,-986 176,-1022"/>
<text text-anchor="start" x="8" y="-999.4" font-family="Times New Roman,serif" font-size="14.00"> &#160;Inf_seterror (187, 25, 0, 3);</text>
</g>
<!-- bb 2&#45;&gt;bb 3 -->
<g id="edge2" class="edge"><title>bb 2&#45;&gt;bb 3</title>
<path fill="none" stroke="black" d="M154.204,-1147.57C138.389,-1113.28 115.048,-1062.66 100.722,-1031.59"/>
<polygon fill="black" stroke="black" points="103.774,-1029.85 96.408,-1022.23 97.4171,-1032.78 103.774,-1029.85"/>
<text text-anchor="middle" x="186.5" y="-1117.4" font-family="Times New Roman,serif" font-size="14.00">D.7825 == 0B</text>
</g>
<!-- bb 4 -->
<g id="node5" class="node"><title>bb 4</title>
<polygon fill="none" stroke="black" points="492,-1096 208,-1096 208,-1040 492,-1040 492,-1096"/>
<text text-anchor="start" x="216" y="-1079.4" font-family="Times New Roman,serif" font-size="14.00"> &#160;wk_status.2 = (BYTE *) &amp;wk_status;</text>
<text text-anchor="start" x="216" y="-1063.4" font-family="Times New Roman,serif" font-size="14.00"> &#160;D.7829 = tkrcv&#45;&gt;msghndl;</text>
<text text-anchor="start" x="216" y="-1047.4" font-family="Times New Roman,serif" font-size="14.00"> &#160;ret = TK_getrcvdata (D.7829, wk_status.2, 4);</text>
</g>
<!-- bb 2&#45;&gt;bb 4 -->
<g id="edge4" class="edge"><title>bb 2&#45;&gt;bb 4</title>
<path fill="none" stroke="black" d="M226.656,-1147.93C249.397,-1133.2 275.556,-1116.24 297.916,-1101.75"/>
<polygon fill="black" stroke="black" points="300.115,-1104.5 306.603,-1096.12 296.308,-1098.62 300.115,-1104.5"/>
<text text-anchor="middle" x="314.5" y="-1117.4" font-family="Times New Roman,serif" font-size="14.00">D.7825 != 0B</text>
</g>
<!-- END -->
<g id="node7" class="node"><title>END</title>
<polygon fill="none" stroke="black" points="573,-114 437,-114 437,-74 573,-74 573,-114"/>
<text text-anchor="start" x="444.5" y="-97.4" font-family="Times New Roman,serif" font-size="14.00"> &#160;D.7850 = pii_status;</text>
<text text-anchor="start" x="444.5" y="-81.4" font-family="Times New Roman,serif" font-size="14.00"> &#160;return D.7850;</text>
</g>
<!-- bb 3&#45;&gt;END -->
<g id="edge6" class="edge"><title>bb 3&#45;&gt;END</title>
<path fill="none" stroke="black" d="M84.7842,-985.771C81.2297,-964.005 76,-926.466 76,-894 76,-894 76,-894 76,-172 76,-159.739 84.1012,-157.616 95,-152 151.279,-123.001 324.201,-106.45 426.618,-98.9457"/>
<polygon fill="black" stroke="black" points="426.885,-102.436 436.608,-98.226 426.382,-95.4537 426.885,-102.436"/>
</g>
<!-- bb 5 -->
<g id="node9" class="node"><title>bb 5</title>
<polygon fill="none" stroke="black" points="710,-914 516,-914 516,-874 710,-874 710,-914"/>
<text text-anchor="start" x="524" y="-897.4" font-family="Times New Roman,serif" font-size="14.00"> &#160;ret.3 = (U4) ret;</text>
<text text-anchor="start" x="524" y="-881.4" font-family="Times New Roman,serif" font-size="14.00"> &#160;Inf_seterror (187, 25, ret.3, 4);</text>
</g>
<!-- bb 4&#45;&gt;bb 5 -->
<g id="edge8" class="edge"><title>bb 4&#45;&gt;bb 5</title>
<path fill="none" stroke="black" d="M392.548,-1039.85C442.743,-1006.64 525.491,-951.896 574.061,-919.762"/>
<polygon fill="black" stroke="black" points="576.017,-922.665 582.426,-914.228 572.155,-916.827 576.017,-922.665"/>
<text text-anchor="middle" x="488.5" y="-999.4" font-family="Times New Roman,serif" font-size="14.00">ret &lt; 0</text>
</g>
<!-- bb 6 -->
<g id="node11" class="node"><title>bb 6</title>
<polygon fill="none" stroke="black" points="433,-968 267,-968 267,-932 433,-932 433,-968"/>
<text text-anchor="start" x="274.5" y="-945.4" font-family="Times New Roman,serif" font-size="14.00"> &#160;wk_status.4 = wk_status;</text>
</g>
<!-- bb 4&#45;&gt;bb 6 -->
<g id="edge10" class="edge"><title>bb 4&#45;&gt;bb 6</title>
<path fill="none" stroke="black" d="M350,-1039.74C350,-1021.16 350,-996.932 350,-978.337"/>
<polygon fill="black" stroke="black" points="353.5,-978.123 350,-968.124 346.5,-978.124 353.5,-978.123"/>
<text text-anchor="middle" x="373" y="-999.4" font-family="Times New Roman,serif" font-size="14.00">ret &gt;= 0</text>
</g>
<!-- Exit -->
<g id="node50" class="node"><title>Exit</title>
<polygon fill="none" stroke="black" points="505,-36 468.95,-18 505,-3.55271e-015 541.05,-18 505,-36"/>
<polyline fill="none" stroke="black" points="479.686,-23.3606 479.686,-12.6394 "/>
<polyline fill="none" stroke="black" points="494.264,-5.36061 515.736,-5.36061 "/>
<polyline fill="none" stroke="black" points="530.314,-12.6394 530.314,-23.3606 "/>
<polyline fill="none" stroke="black" points="515.736,-30.6394 494.264,-30.6394 "/>
<text text-anchor="middle" x="505" y="-13.4" font-family="Times New Roman,serif" font-size="14.00">Exit</text>
</g>
<!-- END&#45;&gt;Exit -->
<g id="edge58" class="edge"><title>END&#45;&gt;Exit</title>
<path fill="none" stroke="black" d="M505,-73.6334C505,-65.2271 505,-55.3414 505,-46.2534"/>
<polygon fill="black" stroke="black" points="508.5,-46.0877 505,-36.0877 501.5,-46.0878 508.5,-46.0877"/>
</g>
<!-- bb 5&#45;&gt;END -->
<g id="edge12" class="edge"><title>bb 5&#45;&gt;END</title>
<path fill="none" stroke="black" d="M631.928,-873.927C647.837,-854.892 668,-824.711 668,-794 668,-794 668,-794 668,-172 668,-145.899 647.547,-145.149 625,-132 611.992,-124.414 597.293,-118.159 582.755,-113.067"/>
<polygon fill="black" stroke="black" points="583.839,-109.739 573.245,-109.887 581.619,-116.378 583.839,-109.739"/>
</g>
<!-- bb 7 -->
<g id="node14" class="node"><title>bb 7</title>
<polygon fill="none" stroke="black" points="589,-856 423,-856 423,-820 589,-820 589,-856"/>
<text text-anchor="start" x="430.5" y="-833.4" font-family="Times New Roman,serif" font-size="14.00"> &#160;wk_status.5 = wk_status;</text>
</g>
<!-- bb 6&#45;&gt;bb 7 -->
<g id="edge14" class="edge"><title>bb 6&#45;&gt;bb 7</title>
<path fill="none" stroke="black" d="M361.181,-931.747C372.416,-914.744 391.163,-889.721 413,-874 420.146,-868.855 428.123,-864.334 436.32,-860.391"/>
<polygon fill="black" stroke="black" points="437.962,-863.49 445.634,-856.183 435.08,-857.111 437.962,-863.49"/>
<text text-anchor="middle" x="460" y="-889.4" font-family="Times New Roman,serif" font-size="14.00">wk_status.4 != 1</text>
</g>
<!-- bb 9 -->
<g id="node16" class="node"><title>bb 9</title>
<polygon fill="none" stroke="black" points="345,-768 269,-768 269,-728 345,-728 345,-768"/>
<text text-anchor="start" x="277" y="-751.4" font-family="Times New Roman,serif" font-size="14.00"> &#160;ret = &#45;1;</text>
<text text-anchor="start" x="277" y="-735.4" font-family="Times New Roman,serif" font-size="14.00"> &#160;loop = 0;</text>
</g>
<!-- bb 6&#45;&gt;bb 9 -->
<g id="edge16" class="edge"><title>bb 6&#45;&gt;bb 9</title>
<path fill="none" stroke="black" d="M341.743,-931.702C333.726,-913.064 321.927,-883.127 316,-856 310.34,-830.094 308.184,-799.978 307.39,-778.14"/>
<polygon fill="black" stroke="black" points="310.888,-778.034 307.1,-768.14 303.891,-778.237 310.888,-778.034"/>
<text text-anchor="middle" x="365" y="-833.4" font-family="Times New Roman,serif" font-size="14.00">wk_status.4 == 1</text>
</g>
<!-- bb 7&#45;&gt;bb 9 -->
<g id="edge20" class="edge"><title>bb 7&#45;&gt;bb 9</title>
<path fill="none" stroke="black" d="M451.161,-819.972C436.322,-814.632 420.389,-808.468 406,-802 386.992,-793.456 366.675,-782.681 349.424,-773.007"/>
<polygon fill="black" stroke="black" points="351.131,-769.952 340.705,-768.067 347.68,-776.042 351.131,-769.952"/>
<text text-anchor="middle" x="455" y="-789.4" font-family="Times New Roman,serif" font-size="14.00">wk_status.5 == 7</text>
</g>
<!-- bb 8 -->
<g id="node18" class="node"><title>bb 8</title>
<polygon fill="none" stroke="black" points="650,-710 414,-710 414,-654 650,-654 650,-710"/>
<text text-anchor="start" x="422" y="-693.4" font-family="Times New Roman,serif" font-size="14.00"> &#160;wk_status.6 = wk_status;</text>
<text text-anchor="start" x="422" y="-677.4" font-family="Times New Roman,serif" font-size="14.00"> &#160;wk_status.7 = (U4) wk_status.6;</text>
<text text-anchor="start" x="422" y="-661.4" font-family="Times New Roman,serif" font-size="14.00"> &#160;Inf_seterror (187, 25, wk_status.7, 5);</text>
</g>
<!-- bb 7&#45;&gt;bb 8 -->
<g id="edge18" class="edge"><title>bb 7&#45;&gt;bb 8</title>
<path fill="none" stroke="black" d="M509.033,-819.8C513.077,-795.537 520.336,-751.982 525.614,-720.318"/>
<polygon fill="black" stroke="black" points="529.128,-720.52 527.32,-710.081 522.223,-719.37 529.128,-720.52"/>
<text text-anchor="middle" x="561" y="-789.4" font-family="Times New Roman,serif" font-size="14.00">wk_status.5 != 7</text>
</g>
<!-- bb 16 -->
<g id="node22" class="node"><title>bb 16</title>
<polygon fill="none" stroke="black" points="319,-636 265,-636 265,-600 319,-600 319,-636"/>
</g>
<!-- bb 9&#45;&gt;bb 16 -->
<g id="edge24" class="edge"><title>bb 9&#45;&gt;bb 16</title>
<path fill="none" stroke="black" d="M304.689,-727.972C302.169,-706.134 298.117,-671.01 295.271,-646.347"/>
<polygon fill="black" stroke="black" points="298.719,-645.694 294.096,-636.161 291.765,-646.497 298.719,-645.694"/>
</g>
<!-- bb 8&#45;&gt;END -->
<g id="edge22" class="edge"><title>bb 8&#45;&gt;END</title>
<path fill="none" stroke="black" d="M578.991,-653.838C604.142,-634.88 630,-607.294 630,-574 630,-574 630,-574 630,-172 630,-144.662 608.214,-126.555 582.832,-114.737"/>
<polygon fill="black" stroke="black" points="583.921,-111.396 573.352,-110.662 581.157,-117.827 583.921,-111.396"/>
</g>
<!-- bb 10 -->
<g id="node23" class="node"><title>bb 10</title>
<polygon fill="none" stroke="black" points="436,-548 144,-548 144,-508 436,-508 436,-548"/>
<text text-anchor="start" x="151.5" y="-531.4" font-family="Times New Roman,serif" font-size="14.00"> &#160;wk_status.8 = wk_status;</text>
<text text-anchor="start" x="151.5" y="-515.4" font-family="Times New Roman,serif" font-size="14.00"> &#160;evrc = pii_atom_client_init_piists (wk_status.8);</text>
</g>
<!-- bb 16&#45;&gt;bb 10 -->
<g id="edge44" class="edge"><title>bb 16&#45;&gt;bb 10</title>
<path fill="none" stroke="black" d="M291.595,-599.787C291.33,-587.835 290.976,-571.92 290.669,-558.112"/>
<polygon fill="black" stroke="black" points="294.167,-557.984 290.446,-548.065 287.169,-558.14 294.167,-557.984"/>
<text text-anchor="middle" x="319.5" y="-569.4" font-family="Times New Roman,serif" font-size="14.00">loop &lt;= 2</text>
</g>
<!-- bb 17 -->
<g id="node32" class="node"><title>bb 17</title>
<polygon fill="none" stroke="black" points="457,-280 403,-280 403,-244 457,-244 457,-280"/>
</g>
<!-- bb 16&#45;&gt;bb 17 -->
<g id="edge46" class="edge"><title>bb 16&#45;&gt;bb 17</title>
<path fill="none" stroke="black" d="M319.254,-616.03C367.753,-610.883 464,-592.539 464,-528 464,-528 464,-528 464,-350 464,-328.641 455.177,-306.208 446.521,-289.337"/>
<polygon fill="black" stroke="black" points="449.354,-287.22 441.511,-280.097 443.2,-290.556 449.354,-287.22"/>
<text text-anchor="middle" x="488.5" y="-433.4" font-family="Times New Roman,serif" font-size="14.00">loop &gt; 2</text>
</g>
<!-- bb 12 -->
<g id="node25" class="node"><title>bb 12</title>
<polygon fill="none" stroke="black" points="410,-368 328,-368 328,-332 410,-332 410,-368"/>
<text text-anchor="start" x="336" y="-345.4" font-family="Times New Roman,serif" font-size="14.00"> &#160;ret = evrc;</text>
</g>
<!-- bb 10&#45;&gt;bb 12 -->
<g id="edge26" class="edge"><title>bb 10&#45;&gt;bb 12</title>
<path fill="none" stroke="black" d="M328.714,-507.945C335.377,-502.911 341.571,-496.93 346,-490 367.62,-456.174 371.034,-408.672 370.66,-378.62"/>
<polygon fill="black" stroke="black" points="374.152,-378.294 370.378,-368.394 367.155,-378.487 374.152,-378.294"/>
<text text-anchor="middle" x="395.5" y="-433.4" font-family="Times New Roman,serif" font-size="14.00">evrc == 0</text>
</g>
<!-- bb 11 -->
<g id="node27" class="node"><title>bb 11</title>
<polygon fill="none" stroke="black" points="317,-456 263,-456 263,-420 317,-420 317,-456"/>
</g>
<!-- bb 10&#45;&gt;bb 11 -->
<g id="edge28" class="edge"><title>bb 10&#45;&gt;bb 11</title>
<path fill="none" stroke="black" d="M290,-507.578C290,-495.383 290,-479.714 290,-466.334"/>
<polygon fill="black" stroke="black" points="293.5,-466.204 290,-456.204 286.5,-466.204 293.5,-466.204"/>
<text text-anchor="middle" x="316" y="-477.4" font-family="Times New Roman,serif" font-size="14.00">evrc != 0</text>
</g>
<!-- bb 12&#45;&gt;bb 17 -->
<g id="edge34" class="edge"><title>bb 12&#45;&gt;bb 17</title>
<path fill="none" stroke="black" d="M381.639,-331.766C390.309,-319.259 401.952,-302.463 411.641,-288.486"/>
<polygon fill="black" stroke="black" points="414.556,-290.423 417.377,-280.21 408.803,-286.435 414.556,-290.423"/>
</g>
<!-- bb 11&#45;&gt;bb 12 -->
<g id="edge30" class="edge"><title>bb 11&#45;&gt;bb 12</title>
<path fill="none" stroke="black" d="M287.554,-419.647C287.091,-408.943 288.275,-395.684 295,-386 300.99,-377.374 309.641,-370.733 318.931,-365.649"/>
<polygon fill="black" stroke="black" points="320.517,-368.77 327.969,-361.238 317.447,-362.479 320.517,-368.77"/>
<text text-anchor="middle" x="325" y="-389.4" font-family="Times New Roman,serif" font-size="14.00">evrc == &#45;1</text>
</g>
<!-- bb 13 -->
<g id="node30" class="node"><title>bb 13</title>
<polygon fill="none" stroke="black" points="242,-368 188,-368 188,-332 242,-332 242,-368"/>
</g>
<!-- bb 11&#45;&gt;bb 13 -->
<g id="edge32" class="edge"><title>bb 11&#45;&gt;bb 13</title>
<path fill="none" stroke="black" d="M262.993,-432.368C246.396,-427.375 226.386,-418.252 216,-402 211.556,-395.045 210.158,-386.428 210.197,-378.221"/>
<polygon fill="black" stroke="black" points="213.692,-378.421 210.895,-368.202 206.708,-377.935 213.692,-378.421"/>
<text text-anchor="middle" x="244" y="-389.4" font-family="Times New Roman,serif" font-size="14.00">evrc != &#45;1</text>
</g>
<!-- bb 14 -->
<g id="node34" class="node"><title>bb 14</title>
<polygon fill="none" stroke="black" points="351,-280 229,-280 229,-244 351,-244 351,-280"/>
<text text-anchor="start" x="237" y="-257.4" font-family="Times New Roman,serif" font-size="14.00"> &#160;TK_waitsk (100);</text>
</g>
<!-- bb 13&#45;&gt;bb 14 -->
<g id="edge36" class="edge"><title>bb 13&#45;&gt;bb 14</title>
<path fill="none" stroke="black" d="M230.54,-331.766C241.3,-319.141 255.785,-302.146 267.763,-288.091"/>
<polygon fill="black" stroke="black" points="270.657,-290.091 274.48,-280.21 265.329,-285.551 270.657,-290.091"/>
<text text-anchor="middle" x="287.5" y="-301.4" font-family="Times New Roman,serif" font-size="14.00">loop &lt;= 1</text>
</g>
<!-- bb 15 -->
<g id="node36" class="node"><title>bb 15</title>
<polygon fill="none" stroke="black" points="220,-190 104,-190 104,-154 220,-154 220,-190"/>
<text text-anchor="start" x="111.5" y="-167.4" font-family="Times New Roman,serif" font-size="14.00"> &#160;loop = loop + 1;</text>
</g>
<!-- bb 13&#45;&gt;bb 15 -->
<g id="edge38" class="edge"><title>bb 13&#45;&gt;bb 15</title>
<path fill="none" stroke="black" d="M200.219,-331.936C190.105,-318.484 177.408,-299.198 171,-280 162.297,-253.927 160.596,-222.439 160.74,-200.209"/>
<polygon fill="black" stroke="black" points="164.241,-200.17 160.936,-190.104 157.243,-200.034 164.241,-200.17"/>
<text text-anchor="middle" x="195.5" y="-257.4" font-family="Times New Roman,serif" font-size="14.00">loop &gt; 1</text>
</g>
<!-- bb 18 -->
<g id="node42" class="node"><title>bb 18</title>
<polygon fill="none" stroke="black" points="602,-192 408,-192 408,-152 602,-152 602,-192"/>
<text text-anchor="start" x="416" y="-175.4" font-family="Times New Roman,serif" font-size="14.00"> &#160;ret.9 = (U4) ret;</text>
<text text-anchor="start" x="416" y="-159.4" font-family="Times New Roman,serif" font-size="14.00"> &#160;Inf_seterror (187, 25, ret.9, 6);</text>
</g>
<!-- bb 17&#45;&gt;bb 18 -->
<g id="edge48" class="edge"><title>bb 17&#45;&gt;bb 18</title>
<path fill="none" stroke="black" d="M445.177,-243.787C455.625,-231.25 469.708,-214.35 481.585,-200.098"/>
<polygon fill="black" stroke="black" points="484.566,-201.988 488.279,-192.065 479.189,-197.506 484.566,-201.988"/>
<text text-anchor="middle" x="492" y="-213.4" font-family="Times New Roman,serif" font-size="14.00">ret != 0</text>
</g>
<!-- bb 19 -->
<g id="node44" class="node"><title>bb 19</title>
<polygon fill="none" stroke="black" points="390,-190 238,-190 238,-154 390,-154 390,-190"/>
<text text-anchor="start" x="245.5" y="-167.4" font-family="Times New Roman,serif" font-size="14.00"> &#160;pii_status = wk_status;</text>
</g>
<!-- bb 17&#45;&gt;bb 19 -->
<g id="edge50" class="edge"><title>bb 17&#45;&gt;bb 19</title>
<path fill="none" stroke="black" d="M406.526,-243.787C388.916,-230.124 364.63,-211.282 345.358,-196.329"/>
<polygon fill="black" stroke="black" points="347.486,-193.55 337.439,-190.186 343.195,-199.081 347.486,-193.55"/>
<text text-anchor="middle" x="405" y="-213.4" font-family="Times New Roman,serif" font-size="14.00">ret == 0</text>
</g>
<!-- bb 14&#45;&gt;bb 15 -->
<g id="edge40" class="edge"><title>bb 14&#45;&gt;bb 15</title>
<path fill="none" stroke="black" d="M264.097,-243.787C244.579,-230.063 217.628,-211.113 196.317,-196.129"/>
<polygon fill="black" stroke="black" points="198.058,-193.074 187.864,-190.186 194.031,-198.801 198.058,-193.074"/>
</g>
<!-- bb 15&#45;&gt;bb 16 -->
<g id="edge42" class="edge"><title>bb 15&#45;&gt;bb 16</title>
<path fill="none" stroke="black" d="M146.169,-190.272C132.863,-207.545 116,-234.801 116,-262 116,-528 116,-528 116,-528 116,-589.806 203.101,-609.193 254.755,-615.256"/>
<polygon fill="black" stroke="black" points="254.573,-618.756 264.886,-616.329 255.31,-611.795 254.573,-618.756"/>
</g>
<!-- bb 18&#45;&gt;END -->
<g id="edge52" class="edge"><title>bb 18&#45;&gt;END</title>
<path fill="none" stroke="black" d="M505,-151.913C505,-143.452 505,-133.423 505,-124.109"/>
<polygon fill="black" stroke="black" points="508.5,-124.019 505,-114.019 501.5,-124.019 508.5,-124.019"/>
</g>
<!-- bb 19&#45;&gt;END -->
<g id="edge54" class="edge"><title>bb 19&#45;&gt;END</title>
<path fill="none" stroke="black" d="M358.299,-153.909C384.537,-143.194 418.095,-129.49 446.492,-117.894"/>
<polygon fill="black" stroke="black" points="447.971,-121.07 455.906,-114.049 445.325,-114.589 447.971,-121.07"/>
</g>
<!-- Entry -->
<g id="node47" class="node"><title>Entry</title>
<ellipse fill="none" stroke="black" cx="171" cy="-1276" rx="99.9522" ry="18"/>
<text text-anchor="middle" x="171" y="-1271.4" font-family="Times New Roman,serif" font-size="14.00">pii_piists_snd(pii,tkrcv)</text>
</g>
<!-- Entry&#45;&gt;bb 2 -->
<g id="edge56" class="edge"><title>Entry&#45;&gt;bb 2</title>
<path fill="none" stroke="black" d="M171,-1257.82C171,-1249.82 171,-1240.01 171,-1230.19"/>
<polygon fill="black" stroke="black" points="174.5,-1230.03 171,-1220.03 167.5,-1230.03 174.5,-1230.03"/>
</g>
</g>
</svg>
