<?xml version="1.0" encoding="UTF-8" standalone="no"?>
<!DOCTYPE svg PUBLIC "-//W3C//DTD SVG 1.1//EN"
 "http://www.w3.org/Graphics/SVG/1.1/DTD/svg11.dtd">
<!-- Generated by graphviz version 2.26.3 (20100126.1600)
 -->
<!-- Title: G Pages: 1 -->
<svg width="1628pt" height="724pt"
 viewBox="0.00 0.00 1628.00 724.00" xmlns="http://www.w3.org/2000/svg" xmlns:xlink="http://www.w3.org/1999/xlink">
<g id="graph1" class="graph" transform="scale(1 1) rotate(0) translate(4 720)">
<title>G</title>
<polygon fill="white" stroke="white" points="-4,5 -4,-720 1625,-720 1625,5 -4,5"/>
<g id="graph2" class="cluster"><title>cluster0</title>
<polygon fill="none" stroke="black" points="8,-8 8,-672 844,-672 844,-8 8,-8"/>
<text text-anchor="middle" x="426" y="-655.4" font-family="Times New Roman,serif" font-size="14.00">Atom側</text>
</g>
<!-- kldY -->
<g id="node2" class="node"><title>-</title>
<ellipse fill="none" stroke="black" cx="468" cy="-622" rx="29.0158" ry="18"/>
<text text-anchor="middle" x="468" y="-617.4" font-family="Times New Roman,serif" font-size="14.00">起動</text>
</g>
<!-- RQZaDqgsJxzWnL -->
<g id="node3" class="node"><title>IOC_サーバ成功のコメント
MouseOverの場合、表示する</title>
<polygon fill="none" stroke="violet" points="285.415,-526.049 290.987,-526.148 296.501,-526.295 301.935,-526.491 307.267,-526.735 312.475,-527.027 317.539,-527.364 322.44,-527.748 327.158,-528.176 331.676,-528.647 335.978,-529.161 340.048,-529.715 343.874,-530.308 347.443,-530.939 350.745,-531.605 353.77,-532.306 356.511,-533.039 358.963,-533.801 361.12,-534.592 362.98,-535.408 364.542,-536.248 365.807,-537.109 366.775,-537.989 367.45,-538.886 367.837,-539.797 367.941,-540.719 367.769,-541.65 367.329,-542.587 366.63,-543.529 365.681,-544.471 364.494,-545.413 363.078,-546.35 361.445,-547.281 359.607,-548.203 357.577,-549.114 355.367,-550.011 352.988,-550.891 350.454,-551.752 347.777,-552.592 344.968,-553.408 342.039,-554.199 339.001,-554.961 335.866,-555.694 332.642,-556.395 329.34,-557.061 325.97,-557.692 322.538,-558.285 319.054,-558.839 315.524,-559.353 311.955,-559.824 308.352,-560.252 304.721,-560.636 301.067,-560.973 297.394,-561.265 293.705,-561.509 290.005,-561.705 286.295,-561.852 282.58,-561.951 278.86,-562 275.14,-562 271.42,-561.951 267.705,-561.852 263.995,-561.705 260.295,-561.509 256.606,-561.265 252.933,-560.973 249.279,-560.636 245.648,-560.252 242.045,-559.824 238.476,-559.353 234.946,-558.839 231.462,-558.285 228.03,-557.692 224.66,-557.061 221.358,-556.395 218.134,-555.694 214.999,-554.961 211.961,-554.199 209.032,-553.408 206.223,-552.592 203.546,-551.752 201.012,-550.891 198.633,-550.011 196.423,-549.114 194.393,-548.203 192.555,-547.281 190.922,-546.35 189.506,-545.413 188.319,-544.471 187.37,-543.529 186.671,-542.587 186.231,-541.65 186.059,-540.719 186.163,-539.797 186.55,-538.886 187.225,-537.989 188.193,-537.109 189.458,-536.248 191.02,-535.408 192.88,-534.592 195.037,-533.801 197.489,-533.039 200.23,-532.306 203.255,-531.605 206.557,-530.939 210.126,-530.308 213.952,-529.715 218.022,-529.161 222.324,-528.647 226.842,-528.176 231.56,-527.748 236.461,-527.364 241.525,-527.027 246.733,-526.735 252.065,-526.491 257.499,-526.295 263.013,-526.148 268.585,-526.049 274.191,-526 279.809,-526 285.415,-526.049"/>
<text text-anchor="middle" x="277" y="-539.4" font-family="Times New Roman,serif" font-size="14.00">IOC_サーバ成功</text>
</g>
<!-- kldY&#45;&gt;RQZaDqgsJxzWnL -->
<g id="edge3" class="edge"><title>起動&#45;&gt;IOC_サーバ成功</title>
<path fill="none" stroke="black" d="M443.421,-611.963C413.42,-599.711 362.026,-578.723 324.27,-563.304"/>
<polygon fill="black" stroke="black" points="325.567,-560.053 314.986,-559.513 322.921,-566.534 325.567,-560.053"/>
</g>
<!-- fcoXTjiANOKWMu -->
<g id="node4" class="node"><title></title>
<polygon fill="none" stroke="darksalmon" points="659,-568 481.903,-532 836.097,-532 659,-568"/>
<text text-anchor="middle" x="659" y="-539.4" font-family="Times New Roman,serif" font-size="14.00">IOC_サーバ失敗</text>
</g>
<!-- kldY&#45;&gt;fcoXTjiANOKWMu -->
<g id="edge5" class="edge"><title>起動&#45;&gt;IOC_サーバ失敗</title>
<path fill="none" stroke="black" d="M489.441,-609.758C493.246,-607.743 497.206,-605.745 501,-604 534.795,-588.454 573.868,-573.591 604.702,-562.546"/>
<polygon fill="black" stroke="black" points="606.155,-565.745 614.407,-559.099 603.812,-559.148 606.155,-565.745"/>
</g>
<!-- OZlRgqFd -->
<g id="node15" class="node"><title>-</title>
<ellipse fill="none" stroke="black" cx="415" cy="-466" rx="51.8257" ry="18"/>
<text text-anchor="middle" x="415" y="-461.4" font-family="Times New Roman,serif" font-size="14.00">アイドル</text>
</g>
<!-- RQZaDqgsJxzWnL&#45;&gt;OZlRgqFd -->
<g id="edge7" class="edge"><title>IOC_サーバ成功&#45;&gt;アイドル</title>
<path fill="none" stroke="black" d="M307.627,-526.689C328.703,-514.776 356.784,-498.905 378.943,-486.38"/>
<polygon fill="black" stroke="black" points="380.747,-489.381 387.73,-481.413 377.303,-483.287 380.747,-489.381"/>
</g>
<!-- ZPROfSqvLXUtzVHJE_sDFYbApkBr -->
<g id="node16" class="node"><title>-</title>
<ellipse fill="none" stroke="black" cx="659" cy="-466" rx="158.984" ry="18"/>
<text text-anchor="middle" x="659" y="-461.4" font-family="Times New Roman,serif" font-size="14.00">アイドル（IOC_サーバエラー）</text>
</g>
<!-- fcoXTjiANOKWMu&#45;&gt;ZPROfSqvLXUtzVHJE_sDFYbApkBr -->
<g id="edge9" class="edge"><title>IOC_サーバ失敗&#45;&gt;アイドル（IOC_サーバエラー）</title>
<path fill="none" stroke="black" d="M659,-531.813C659,-521.837 659,-507.326 659,-494.467"/>
<polygon fill="black" stroke="black" points="662.5,-494.189 659,-484.189 655.5,-494.189 662.5,-494.189"/>
</g>
<!-- CqGNfkeptXEhzAJxFoWu -->
<g id="node5" class="node"><title>-</title>
<ellipse fill="none" stroke="black" cx="197" cy="-250" rx="114.209" ry="18"/>
<text text-anchor="middle" x="197" y="-245.4" font-family="Times New Roman,serif" font-size="14.00">IOC_クライアント成功</text>
</g>
<!-- tqFrU_Yu -->
<g id="node8" class="node"><title>-</title>
<ellipse fill="none" stroke="black" cx="292" cy="-178" rx="49.1393" ry="18"/>
<text text-anchor="middle" x="292" y="-173.4" font-family="Times New Roman,serif" font-size="14.00">開始成功</text>
</g>
<!-- CqGNfkeptXEhzAJxFoWu&#45;&gt;tqFrU_Yu -->
<g id="edge11" class="edge"><title>IOC_クライアント成功&#45;&gt;開始成功</title>
<path fill="none" stroke="black" d="M220.483,-232.202C233.133,-222.615 248.866,-210.691 262.352,-200.47"/>
<polygon fill="black" stroke="black" points="264.556,-203.191 270.411,-194.362 260.328,-197.613 264.556,-203.191"/>
</g>
<!-- gSrfFRNI -->
<g id="node9" class="node"><title>-</title>
<ellipse fill="none" stroke="black" cx="408" cy="-178" rx="48.9699" ry="18"/>
<text text-anchor="middle" x="408" y="-173.4" font-family="Times New Roman,serif" font-size="14.00">開始失敗</text>
</g>
<!-- CqGNfkeptXEhzAJxFoWu&#45;&gt;gSrfFRNI -->
<g id="edge13" class="edge"><title>IOC_クライアント成功&#45;&gt;開始失敗</title>
<path fill="none" stroke="black" d="M244.879,-233.662C279.96,-221.691 327.303,-205.537 361.948,-193.715"/>
<polygon fill="black" stroke="black" points="363.478,-196.89 371.812,-190.348 361.218,-190.266 363.478,-196.89"/>
</g>
<!-- mpvYkgHaUbCKFz_VBwou -->
<g id="node6" class="node"><title>-</title>
<ellipse fill="none" stroke="black" cx="388" cy="-322" rx="122.089" ry="18"/>
<text text-anchor="middle" x="388" y="-317.4" font-family="Times New Roman,serif" font-size="14.00">IOC_クライアント失敗</text>
</g>
<!-- M_xCEuyzFRZGNKbVYntLBTcWrqiwsIgmUH -->
<g id="node17" class="node"><title>-</title>
<ellipse fill="none" stroke="black" cx="525" cy="-250" rx="196.05" ry="18"/>
<text text-anchor="middle" x="525" y="-245.4" font-family="Times New Roman,serif" font-size="14.00">アイドル（IOC_クライアントエラー）</text>
</g>
<!-- mpvYkgHaUbCKFz_VBwou&#45;&gt;M_xCEuyzFRZGNKbVYntLBTcWrqiwsIgmUH -->
<g id="edge15" class="edge"><title>IOC_クライアント失敗&#45;&gt;アイドル（IOC_クライアントエラー）</title>
<path fill="none" stroke="black" d="M421.164,-304.571C439.485,-294.942 462.451,-282.872 482.123,-272.534"/>
<polygon fill="black" stroke="black" points="483.966,-275.519 491.19,-267.769 480.71,-269.323 483.966,-275.519"/>
</g>
<!-- MNniZoAPSCxq -->
<g id="node7" class="node"><title>-</title>
<ellipse fill="none" stroke="black" cx="92" cy="-544" rx="75.9737" ry="18"/>
<text text-anchor="middle" x="92" y="-539.4" font-family="Times New Roman,serif" font-size="14.00">更新開始要求</text>
</g>
<!-- MNniZoAPSCxq&#45;&gt;OZlRgqFd -->
<g id="edge17" class="edge"><title>更新開始要求&#45;&gt;アイドル</title>
<path fill="none" stroke="black" d="M139.982,-529.981C152.034,-526.59 164.963,-523.063 177,-520 239.677,-504.053 312.226,-487.924 360.591,-477.501"/>
<polygon fill="black" stroke="black" points="361.49,-480.887 370.532,-475.365 360.02,-474.044 361.49,-480.887"/>
</g>
<!-- Yvfbtnc_ -->
<g id="node10" class="node"><title>-</title>
<ellipse fill="none" stroke="black" cx="409" cy="-106" rx="46.9574" ry="18"/>
<text text-anchor="middle" x="409" y="-101.4" font-family="Times New Roman,serif" font-size="14.00">送信成功</text>
</g>
<!-- tqFrU_Yu&#45;&gt;Yvfbtnc_ -->
<g id="edge19" class="edge"><title>開始成功&#45;&gt;送信成功</title>
<path fill="none" stroke="black" d="M317.387,-162.377C334.368,-151.927 356.898,-138.063 375.367,-126.698"/>
<polygon fill="black" stroke="black" points="377.382,-129.567 384.064,-121.345 373.713,-123.605 377.382,-129.567"/>
</g>
<!-- aYOVBQij -->
<g id="node11" class="node"><title>-</title>
<ellipse fill="none" stroke="black" cx="292" cy="-106" rx="51.8257" ry="18"/>
<text text-anchor="middle" x="292" y="-101.4" font-family="Times New Roman,serif" font-size="14.00">送信失敗</text>
</g>
<!-- tqFrU_Yu&#45;&gt;aYOVBQij -->
<g id="edge21" class="edge"><title>開始成功&#45;&gt;送信失敗</title>
<path fill="none" stroke="black" d="M292,-159.831C292,-152.131 292,-142.974 292,-134.417"/>
<polygon fill="black" stroke="black" points="295.5,-134.413 292,-124.413 288.5,-134.413 295.5,-134.413"/>
</g>
<!-- gSrfFRNI&#45;&gt;Yvfbtnc_ -->
<g id="edge23" class="edge"><title>開始失敗&#45;&gt;送信成功</title>
<path fill="none" stroke="black" d="M408.252,-159.831C408.359,-152.131 408.486,-142.974 408.605,-134.417"/>
<polygon fill="black" stroke="black" points="412.105,-134.461 408.744,-124.413 405.106,-134.364 412.105,-134.461"/>
</g>
<!-- gSrfFRNI&#45;&gt;aYOVBQij -->
<g id="edge25" class="edge"><title>開始失敗&#45;&gt;送信失敗</title>
<path fill="none" stroke="black" d="M382.83,-162.377C366.223,-152.07 344.263,-138.439 326.096,-127.163"/>
<polygon fill="black" stroke="black" points="327.864,-124.141 317.522,-121.841 324.172,-130.088 327.864,-124.141"/>
</g>
<!-- Yvfbtnc_&#45;&gt;OZlRgqFd -->
<g id="edge27" class="edge"><title>送信成功&#45;&gt;アイドル</title>
<path fill="none" stroke="black" d="M451.339,-114.059C544.694,-133.039 760,-183.969 760,-250 760,-322 760,-322 760,-322 760,-403.977 674.582,-380.258 599,-412 556.494,-429.851 506.133,-444.191 468.853,-453.594"/>
<polygon fill="black" stroke="black" points="467.565,-450.308 458.703,-456.115 469.251,-457.102 467.565,-450.308"/>
</g>
<!-- QSqTOGsmwIlbve -->
<g id="node13" class="node"><title>-</title>
<ellipse fill="none" stroke="black" cx="102" cy="-34" rx="85.1942" ry="18"/>
<text text-anchor="middle" x="102" y="-29.4" font-family="Times New Roman,serif" font-size="14.00">タイマ起動成功</text>
</g>
<!-- aYOVBQij&#45;&gt;QSqTOGsmwIlbve -->
<g id="edge29" class="edge"><title>送信失敗&#45;&gt;タイマ起動成功</title>
<path fill="none" stroke="black" d="M256.708,-92.6261C227.6,-81.5959 185.917,-65.8001 153.15,-53.3831"/>
<polygon fill="black" stroke="black" points="154.319,-50.0833 143.728,-49.8125 151.838,-56.6291 154.319,-50.0833"/>
</g>
<!-- FvGwzKWHMPchVL -->
<g id="node14" class="node"><title>-</title>
<ellipse fill="none" stroke="black" cx="310" cy="-34" rx="95.9273" ry="18"/>
<text text-anchor="middle" x="310" y="-29.4" font-family="Times New Roman,serif" font-size="14.00">タイマ起動失敗</text>
</g>
<!-- aYOVBQij&#45;&gt;FvGwzKWHMPchVL -->
<g id="edge31" class="edge"><title>送信失敗&#45;&gt;タイマ起動失敗</title>
<path fill="none" stroke="black" d="M296.542,-87.8314C298.488,-80.0463 300.807,-70.7729 302.966,-62.1347"/>
<polygon fill="black" stroke="black" points="306.367,-62.9636 305.397,-52.4133 299.576,-61.2658 306.367,-62.9636"/>
</g>
<!-- orEkpy -->
<g id="node12" class="node"><title>-</title>
<ellipse fill="none" stroke="black" cx="425" cy="-544" rx="38.9076" ry="18"/>
<text text-anchor="middle" x="425" y="-539.4" font-family="Times New Roman,serif" font-size="14.00">タイマ</text>
</g>
<!-- orEkpy&#45;&gt;OZlRgqFd -->
<g id="edge33" class="edge"><title>タイマ&#45;&gt;アイドル</title>
<path fill="none" stroke="black" d="M422.681,-525.909C421.469,-516.458 419.959,-504.682 418.6,-494.077"/>
<polygon fill="black" stroke="black" points="422.05,-493.466 417.307,-483.993 415.107,-494.357 422.05,-493.466"/>
</g>
<!-- QSqTOGsmwIlbve&#45;&gt;OZlRgqFd -->
<g id="edge35" class="edge"><title>タイマ起動成功&#45;&gt;アイドル</title>
<path fill="none" stroke="black" d="M89.4149,-52.1522C72.3566,-78.5759 44,-129.756 44,-178 44,-322 44,-322 44,-322 44,-388.53 253.965,-436.456 357.985,-456.117"/>
<polygon fill="black" stroke="black" points="357.54,-459.594 368.013,-457.987 358.824,-452.713 357.54,-459.594"/>
</g>
<!-- FvGwzKWHMPchVL&#45;&gt;OZlRgqFd -->
<g id="edge37" class="edge"><title>タイマ起動失敗&#45;&gt;アイドル</title>
<path fill="none" stroke="black" d="M394.841,-42.4492C530.22,-58.3107 780,-98.3661 780,-178 780,-322 780,-322 780,-322 780,-462.121 627.896,-418.109 491,-448 483.362,-449.668 475.31,-451.497 467.417,-453.331"/>
<polygon fill="black" stroke="black" points="466.485,-449.955 457.547,-455.645 468.082,-456.77 466.485,-449.955"/>
</g>
<!-- PfELTjKX -->
<g id="node18" class="node"><title>-</title>
<ellipse fill="none" stroke="black" cx="397" cy="-394" rx="51.1517" ry="18"/>
<text text-anchor="middle" x="397" y="-389.4" font-family="Times New Roman,serif" font-size="14.00">更新開始</text>
</g>
<!-- OZlRgqFd&#45;&gt;PfELTjKX -->
<g id="edge39" class="edge"><title>アイドル&#45;&gt;更新開始</title>
<path fill="none" stroke="black" d="M410.458,-447.831C408.512,-440.046 406.193,-430.773 404.034,-422.135"/>
<polygon fill="black" stroke="black" points="407.424,-421.266 401.603,-412.413 400.633,-422.964 407.424,-421.266"/>
</g>
<!-- syvcrSxL -->
<g id="node19" class="node"><title>-</title>
<ellipse fill="none" stroke="black" cx="523" cy="-178" rx="47.1269" ry="18"/>
<text text-anchor="middle" x="523" y="-173.4" font-family="Times New Roman,serif" font-size="14.00">更新通知</text>
</g>
<!-- OZlRgqFd&#45;&gt;syvcrSxL -->
<g id="edge41" class="edge"><title>アイドル&#45;&gt;更新通知</title>
<path fill="none" stroke="black" d="M455.459,-454.636C526.259,-432.305 670.721,-375.278 730,-268 763.464,-207.439 652.297,-187.604 580.087,-181.126"/>
<polygon fill="black" stroke="black" points="579.993,-177.606 569.737,-180.264 579.412,-184.582 579.993,-177.606"/>
</g>
<!-- WoIfOSlvYZji -->
<g id="node20" class="node"><title>-</title>
<ellipse fill="none" stroke="black" cx="159" cy="-178" rx="65.9119" ry="18"/>
<text text-anchor="middle" x="159" y="-173.4" font-family="Times New Roman,serif" font-size="14.00">タイマアウト</text>
</g>
<!-- OZlRgqFd&#45;&gt;WoIfOSlvYZji -->
<g id="edge43" class="edge"><title>アイドル&#45;&gt;タイマアウト</title>
<path fill="none" stroke="black" d="M371.932,-455.863C295.711,-435.333 138.981,-380.872 74,-268 66.0171,-254.134 66.2953,-246.023 74,-232 82.1571,-217.154 96.3155,-205.81 110.764,-197.445"/>
<polygon fill="black" stroke="black" points="112.596,-200.434 119.747,-192.616 109.282,-194.268 112.596,-200.434"/>
</g>
<!-- ZPROfSqvLXUtzVHJE_sDFYbApkBr&#45;&gt;ZPROfSqvLXUtzVHJE_sDFYbApkBr -->
<g id="edge45" class="edge"><title>アイドル（IOC_サーバエラー）&#45;&gt;アイドル（IOC_サーバエラー）</title>
<path fill="none" stroke="black" d="M764.832,-479.475C803.91,-479.878 836,-475.387 836,-466 836,-457.457 809.417,-452.968 775.178,-452.535"/>
<polygon fill="black" stroke="black" points="774.836,-449.035 764.832,-452.525 774.829,-456.035 774.836,-449.035"/>
</g>
<!-- M_xCEuyzFRZGNKbVYntLBTcWrqiwsIgmUH&#45;&gt;PfELTjKX -->
<g id="edge47" class="edge"><title>アイドル（IOC_クライアントエラー）&#45;&gt;更新開始</title>
<path fill="none" stroke="black" d="M528.878,-268.005C532.021,-287.559 533.809,-318.826 519,-340 503.53,-362.119 476.865,-375.29 452.402,-383.076"/>
<polygon fill="black" stroke="black" points="451.412,-379.718 442.807,-385.9 453.389,-386.434 451.412,-379.718"/>
</g>
<!-- M_xCEuyzFRZGNKbVYntLBTcWrqiwsIgmUH&#45;&gt;syvcrSxL -->
<g id="edge49" class="edge"><title>アイドル（IOC_クライアントエラー）&#45;&gt;更新通知</title>
<path fill="none" stroke="black" d="M524.495,-231.831C524.281,-224.131 524.027,-214.974 523.789,-206.417"/>
<polygon fill="black" stroke="black" points="527.288,-206.312 523.511,-196.413 520.291,-206.507 527.288,-206.312"/>
</g>
<!-- PfELTjKX&#45;&gt;CqGNfkeptXEhzAJxFoWu -->
<g id="edge51" class="edge"><title>更新開始&#45;&gt;IOC_クライアント成功</title>
<path fill="none" stroke="black" d="M353.39,-384.573C323.826,-376.515 285.158,-362.56 257,-340 235.967,-323.149 219.66,-296.906 209.39,-277.098"/>
<polygon fill="black" stroke="black" points="212.43,-275.351 204.839,-267.96 206.164,-278.472 212.43,-275.351"/>
</g>
<!-- PfELTjKX&#45;&gt;mpvYkgHaUbCKFz_VBwou -->
<g id="edge53" class="edge"><title>更新開始&#45;&gt;IOC_クライアント失敗</title>
<path fill="none" stroke="black" d="M394.729,-375.831C393.766,-368.131 392.622,-358.974 391.552,-350.417"/>
<polygon fill="black" stroke="black" points="395.015,-349.902 390.302,-340.413 388.069,-350.77 395.015,-349.902"/>
</g>
<!-- syvcrSxL&#45;&gt;Yvfbtnc_ -->
<g id="edge55" class="edge"><title>更新通知&#45;&gt;送信成功</title>
<path fill="none" stroke="black" d="M498.544,-162.554C482.014,-152.114 459.993,-138.206 441.926,-126.795"/>
<polygon fill="black" stroke="black" points="443.739,-123.801 433.415,-121.42 440.001,-129.719 443.739,-123.801"/>
</g>
<!-- syvcrSxL&#45;&gt;aYOVBQij -->
<g id="edge57" class="edge"><title>更新通知&#45;&gt;送信失敗</title>
<path fill="none" stroke="black" d="M486.519,-166.45C479.702,-164.3 472.635,-162.077 466,-160 423.829,-146.798 375.864,-131.923 340.989,-121.132"/>
<polygon fill="black" stroke="black" points="341.65,-117.673 331.062,-118.062 339.581,-124.361 341.65,-117.673"/>
</g>
<!-- WoIfOSlvYZji&#45;&gt;Yvfbtnc_ -->
<g id="edge59" class="edge"><title>タイマアウト&#45;&gt;送信成功</title>
<path fill="none" stroke="black" d="M206.589,-165.317C245.955,-154.69 303.269,-138.907 353,-124 356.379,-122.987 359.867,-121.92 363.371,-120.831"/>
<polygon fill="black" stroke="black" points="364.728,-124.073 373.217,-117.734 362.627,-117.396 364.728,-124.073"/>
</g>
<!-- WoIfOSlvYZji&#45;&gt;aYOVBQij -->
<g id="edge61" class="edge"><title>タイマアウト&#45;&gt;送信失敗</title>
<path fill="none" stroke="black" d="M188.848,-161.842C208.329,-151.296 233.912,-137.446 254.727,-126.178"/>
<polygon fill="black" stroke="black" points="256.491,-129.203 263.619,-121.364 253.158,-123.047 256.491,-129.203"/>
</g>
<!-- VyFsPNuh -->
<g id="node51" class="node"><title>-</title>
<ellipse fill="none" stroke="black" cx="1239" cy="-698" rx="52.9948" ry="18"/>
<text text-anchor="middle" x="1239" y="-693.4" font-family="Times New Roman,serif" font-size="14.00">M3メーン</text>
</g>
<!-- bRiSJBEskH -->
<g id="node53" class="node"><title>-</title>
<ellipse fill="none" stroke="black" cx="1086" cy="-622" rx="59.8749" ry="18"/>
<text text-anchor="middle" x="1086" y="-617.4" font-family="Times New Roman,serif" font-size="14.00">読み込み中</text>
</g>
<!-- VyFsPNuh&#45;&gt;bRiSJBEskH -->
<g id="edge63" class="edge"><title>M3メーン&#45;&gt;読み込み中</title>
<path fill="none" stroke="black" d="M1195.65,-687.523C1182.26,-683.516 1167.7,-678.349 1155,-672 1140.59,-664.797 1125.96,-654.677 1113.9,-645.424"/>
<polygon fill="black" stroke="black" points="1116.02,-642.638 1106,-639.204 1111.69,-648.138 1116.02,-642.638"/>
</g>
<!-- GPTKZwJyEsnh -->
<g id="node55" class="node"><title>-</title>
<ellipse fill="none" stroke="black" cx="1239" cy="-622" rx="75.1319" ry="18"/>
<text text-anchor="middle" x="1239" y="-617.4" font-family="Times New Roman,serif" font-size="14.00">読み込み失敗</text>
</g>
<!-- VyFsPNuh&#45;&gt;GPTKZwJyEsnh -->
<g id="edge65" class="edge"><title>M3メーン&#45;&gt;読み込み失敗</title>
<path fill="none" stroke="black" d="M1239,-679.989C1239,-671.157 1239,-660.31 1239,-650.396"/>
<polygon fill="black" stroke="black" points="1242.5,-650.145 1239,-640.145 1235.5,-650.145 1242.5,-650.145"/>
</g>
<!-- atzxUeocf_ -->
<g id="node57" class="node"><title>-</title>
<ellipse fill="none" stroke="black" cx="1386" cy="-622" rx="53.838" ry="18"/>
<text text-anchor="middle" x="1386" y="-617.4" font-family="Times New Roman,serif" font-size="14.00">書き込み中</text>
</g>
<!-- VyFsPNuh&#45;&gt;atzxUeocf_ -->
<g id="edge67" class="edge"><title>M3メーン&#45;&gt;書き込み中</title>
<path fill="none" stroke="black" d="M1282.96,-687.73C1296.24,-683.755 1310.58,-678.554 1323,-672 1336.29,-664.99 1349.53,-655.042 1360.42,-645.863"/>
<polygon fill="black" stroke="black" points="1363,-648.257 1368.26,-639.055 1358.41,-642.974 1363,-648.257"/>
</g>
<!-- hoSEdQDMXOPJ -->
<g id="node59" class="node"><title>-</title>
<ellipse fill="none" stroke="black" cx="1539" cy="-622" rx="81.1693" ry="18"/>
<text text-anchor="middle" x="1539" y="-617.4" font-family="Times New Roman,serif" font-size="14.00">書き込み成功</text>
</g>
<!-- VyFsPNuh&#45;&gt;hoSEdQDMXOPJ -->
<g id="edge69" class="edge"><title>M3メーン&#45;&gt;書き込み成功</title>
<path fill="none" stroke="black" d="M1290.74,-693.873C1343.18,-689.283 1420.53,-681.28 1449,-672 1468.79,-665.549 1489.19,-654.623 1505.56,-644.627"/>
<polygon fill="black" stroke="black" points="1507.6,-647.481 1514.21,-639.203 1503.88,-641.551 1507.6,-647.481"/>
</g>
<!-- nKuCOsmokULZ -->
<g id="node61" class="node"><title>-</title>
<ellipse fill="none" stroke="black" cx="930" cy="-622" rx="77.9861" ry="18"/>
<text text-anchor="middle" x="930" y="-617.4" font-family="Times New Roman,serif" font-size="14.00">書き込み失敗</text>
</g>
<!-- VyFsPNuh&#45;&gt;nKuCOsmokULZ -->
<g id="edge71" class="edge"><title>M3メーン&#45;&gt;書き込み失敗</title>
<path fill="none" stroke="black" d="M1187.07,-694.346C1131.59,-690.013 1047.54,-682.089 1017,-672 997.918,-665.695 978.367,-654.92 962.645,-644.983"/>
<polygon fill="black" stroke="black" points="964.154,-641.789 953.863,-639.269 960.336,-647.656 964.154,-641.789"/>
</g>
<!-- PnrFYxlykLfOv -->
<g id="node63" class="node"><title></title>
<ellipse fill="none" stroke="black" cx="1162" cy="-544" rx="71.7778" ry="18"/>
<text text-anchor="middle" x="1162" y="-539.4" font-family="Times New Roman,serif" font-size="14.00">M3側のRPC通信</text>
</g>
<!-- bRiSJBEskH&#45;&gt;PnrFYxlykLfOv -->
<g id="edge73" class="edge"><title>読み込み中&#45;&gt;M3側のRPC通信</title>
<path fill="none" stroke="black" d="M1102.87,-604.689C1113.13,-594.16 1126.4,-580.537 1137.77,-568.867"/>
<polygon fill="black" stroke="black" points="1140.45,-571.137 1144.92,-561.532 1135.43,-566.252 1140.45,-571.137"/>
</g>
<!-- GPTKZwJyEsnh&#45;&gt;PnrFYxlykLfOv -->
<g id="edge75" class="edge"><title>読み込み失敗&#45;&gt;M3側のRPC通信</title>
<path fill="none" stroke="black" d="M1221.53,-604.301C1211.19,-593.829 1197.94,-580.402 1186.56,-568.878"/>
<polygon fill="black" stroke="black" points="1188.92,-566.287 1179.4,-561.629 1183.94,-571.205 1188.92,-566.287"/>
</g>
<!-- atzxUeocf_&#45;&gt;PnrFYxlykLfOv -->
<g id="edge77" class="edge"><title>書き込み中&#45;&gt;M3側のRPC通信</title>
<path fill="none" stroke="black" d="M1348.51,-608.945C1311.61,-596.097 1254.97,-576.374 1213.79,-562.033"/>
<polygon fill="black" stroke="black" points="1214.79,-558.677 1204.2,-558.694 1212.49,-565.288 1214.79,-558.677"/>
</g>
<!-- hoSEdQDMXOPJ&#45;&gt;PnrFYxlykLfOv -->
<g id="edge79" class="edge"><title>書き込み成功&#45;&gt;M3側のRPC通信</title>
<path fill="none" stroke="black" d="M1479.68,-609.727C1411.2,-595.558 1298.88,-572.321 1227.78,-557.61"/>
<polygon fill="black" stroke="black" points="1228.1,-554.102 1217.6,-555.503 1226.68,-560.957 1228.1,-554.102"/>
</g>
<!-- nKuCOsmokULZ&#45;&gt;PnrFYxlykLfOv -->
<g id="edge81" class="edge"><title>書き込み失敗&#45;&gt;M3側のRPC通信</title>
<path fill="none" stroke="black" d="M974.184,-607.145C1012.64,-594.214 1068.47,-575.445 1109.26,-561.731"/>
<polygon fill="black" stroke="black" points="1110.4,-565.04 1118.77,-558.535 1108.17,-558.405 1110.4,-565.04"/>
</g>
<!-- PnrFYxlykLfOv&#45;&gt;OZlRgqFd -->
<g id="edge83" class="edge"><title>M3側のRPC通信&#45;&gt;アイドル</title>
<path fill="none" stroke="black" d="M1093.4,-538.428C934.325,-525.427 549.373,-493.472 491,-484 483.007,-482.703 474.607,-481.032 466.426,-479.231"/>
<polygon fill="black" stroke="black" points="467.125,-475.801 456.596,-476.987 465.567,-482.625 467.125,-475.801"/>
</g>
</g>
</svg>
